<?xml version="1.0" encoding="UTF-8" standalone="no"?>
<!-- Created with Inkscape (http://www.inkscape.org/) -->

<svg
   width="1024"
   height="1024"
   viewBox="0 0 1024 1024"
   version="1.1"
   id="svg1"
   sodipodi:docname="launcher_icon.svg"
   inkscape:export-filename="launcher_icon_transparent_bc.png"
   inkscape:export-xdpi="96"
   inkscape:export-ydpi="96"
   inkscape:version="1.3 (0e150ed6c4, 2023-07-21)"
   xmlns:inkscape="http://www.inkscape.org/namespaces/inkscape"
   xmlns:sodipodi="http://sodipodi.sourceforge.net/DTD/sodipodi-0.dtd"
   xmlns="http://www.w3.org/2000/svg"
   xmlns:svg="http://www.w3.org/2000/svg">
  <sodipodi:namedview
     id="namedview1"
     pagecolor="#505050"
     bordercolor="#eeeeee"
     borderopacity="1"
     inkscape:showpageshadow="0"
     inkscape:pageopacity="0"
     inkscape:pagecheckerboard="0"
     inkscape:deskcolor="#505050"
     inkscape:zoom="0.75878906"
     inkscape:cx="454.67181"
     inkscape:cy="501.45689"
     inkscape:window-width="1920"
     inkscape:window-height="991"
     inkscape:window-x="-9"
     inkscape:window-y="-9"
     inkscape:window-maximized="1"
     inkscape:current-layer="svg1" />
  <defs
     id="defs1" />
  <g
     inkscape:groupmode="layer"
     id="layer3"
     inkscape:label="Layer 1">
    <path
       id="path2"
       style="fill:#000000;fill-opacity:1;stroke-width:2.37947"
       d="m 563.74202,116.09342 -72.12328,28.22377 -87.80831,120.73062 -3.13236,277.52522 65.84924,-7.84019 6.27404,348.08697 54.87671,25.08677 z m 241.46592,0 -75.26493,29.78995 -79.96352,141.11422 29.78995,142.685 54.87675,68.99095 -4.70318,399.82664 68.99089,-25.0914 17.24659,-359.05487 45.47032,-84.67132 75.2603,-123.86763 -64.28309,-148.95439 z m -569.16466,43.90417 -61.1507,15.6804 4.70317,192.85388 -39.19632,3.13701 -1.57083,-192.85855 -51.739707,14.1142 1.566194,268.11885 100.347003,95.64384 -15.68035,343.37917 83.10511,-6.27401 9.40637,-346.51618 37.63016,-103.48404 -1.56618,-268.11417 -32.92696,-3.13701 -4.70317,200.69408 h -36.06398 z" />
  </g>
</svg>
